# Blender v2.79 (sub 0) OBJ File: ''
# www.blender.org
mtllib Furnace.mtl
o Cube_Cube.000
v -1.577398 -0.291843 -0.060629
v -1.577398 0.459007 -0.060629
v -1.577398 0.459007 -0.811479
v -1.577398 -0.291843 -0.811479
v -0.826547 0.459007 -0.811479
v -0.826547 -0.291843 -0.811479
v -0.826547 0.459007 -0.060629
v -0.826547 -0.291843 -0.060629
v -0.826547 0.525085 -0.811479
v -0.826547 0.525085 -0.623767
v -0.826547 0.525085 -0.436054
v -0.826547 0.525085 -0.248342
v -0.826547 0.525085 -0.060629
v -1.014260 0.525085 -0.811479
v -1.014260 0.663535 -0.811479
v -0.826547 0.663535 -0.811479
v -1.577398 0.525085 -0.811479
v -1.577398 0.525085 -0.623767
v -1.014260 0.525085 -0.060629
v -1.201972 0.525085 -0.060629
v -1.389685 0.525085 -0.060629
v -1.577398 0.525085 -0.060629
v -1.389685 0.525085 -0.811479
v -1.201972 0.525085 -0.811479
v -1.014260 0.525085 -0.248342
v -1.014260 0.663535 -0.248342
v -0.826547 0.663535 -0.248342
v -1.014260 0.525085 -0.623767
v -1.201972 0.525085 -0.623767
v -1.201972 0.525085 -0.436054
v -1.014260 0.525085 -0.436054
v -0.826547 0.663535 -0.060629
v -1.014260 0.663535 -0.060629
v -1.389685 0.525085 -0.623767
v -1.389685 0.525085 -0.436054
v -1.577398 0.663535 -0.623767
v -1.577398 0.525085 -0.248342
v -1.577398 0.663535 -0.248342
v -1.201972 0.663535 -0.623767
v -1.389685 0.663535 -0.623767
v -1.577398 0.663535 -0.811479
v -0.826547 0.663535 -0.623767
v -1.389685 0.663535 -0.811479
v -1.201972 0.525085 -0.248342
v -1.389685 0.663535 -0.436054
v -1.389685 0.525085 -0.248342
v -1.014260 0.663535 -0.623767
v -1.201972 0.663535 -0.811479
v -1.201972 0.805131 -0.811479
v -1.014260 0.805131 -0.811479
v -0.826547 0.805131 -0.811479
v -1.577398 0.805131 -0.623767
v -1.577398 0.805131 -0.811479
v -0.826547 0.805131 -0.060629
v -1.014260 0.805131 -0.060629
v -1.201972 0.663535 -0.060629
v -1.201972 0.805131 -0.060629
v -1.577398 0.805131 -0.248342
v -1.577398 0.805131 -0.342198
v -1.577398 0.805131 -0.436054
v -1.577398 0.805131 -0.529911
v -1.201972 0.663535 -0.248342
v -1.389685 0.663535 -0.060629
v -1.577398 0.663535 -0.060629
v -1.389685 0.663535 -0.248342
v -0.826547 0.805131 -0.248342
v -1.577398 0.805131 -0.060629
v -1.389685 0.805131 -0.060629
v -0.826547 0.805131 -0.623767
v -0.826547 0.805131 -0.529911
v -0.826547 0.805131 -0.436054
v -0.826547 0.805131 -0.342198
v -1.389685 0.805131 -0.811479
v -1.014260 1.318243 -0.342198
v -1.014260 1.318243 -0.248342
v -1.014260 1.318243 -0.529911
v -1.014260 1.318243 -0.436054
v -1.389685 1.318243 -0.529911
v -1.389685 1.318243 -0.436054
v -1.390905 1.874752 -0.436054
v -1.375801 1.874752 -0.522969
v -1.201972 1.318243 -0.623767
v -1.389685 1.318243 -0.623767
v -1.349002 1.874752 -0.583084
v -1.201972 1.874752 -0.624987
v -1.014260 1.318243 -0.623767
v -1.054942 1.874752 -0.583084
v -1.028144 1.874752 -0.522969
v -1.389685 1.318243 -0.342198
v -1.389685 1.318243 -0.248342
v -1.201972 1.318243 -0.248342
v -1.201972 1.874752 -0.247122
v -1.349002 1.874752 -0.289024
v -1.375801 1.874752 -0.349140
v -1.331482 1.874752 -0.565564
v -1.201972 1.874752 -0.602473
v -1.013040 1.874752 -0.436054
v -1.048858 1.874752 -0.512612
v -1.035554 1.874752 -0.436054
v -1.355087 1.874752 -0.359497
v -1.368391 1.874752 -0.436054
v -1.054942 1.874752 -0.289024
v -1.028144 1.874752 -0.349140
v -1.048858 1.874752 -0.359497
v -1.072463 1.874752 -0.306545
v -1.355087 1.874752 -0.512612
v -1.072463 1.874752 -0.565564
v -1.201972 1.874752 -0.269635
v -1.331482 1.874752 -0.306545
v -1.201972 1.456584 -0.602473
v -1.072463 1.456584 -0.565564
v -1.048858 1.456584 -0.512612
v -1.201972 1.456584 -0.269635
v -1.331482 1.456584 -0.306545
v -1.035554 1.456584 -0.436054
v -1.048858 1.456584 -0.359497
v -1.355087 1.456584 -0.512612
v -1.331482 1.456584 -0.565564
v -1.368391 1.456584 -0.436054
v -1.072463 1.456584 -0.306545
v -1.355087 1.456584 -0.359497
vt 0.518012 0.259511
vt 0.774936 0.259511
vt 0.774936 0.516435
vt 0.518012 0.516435
vt 0.000833 0.516435
vt 0.000833 0.259511
vt 0.257757 0.259511
vt 0.257757 0.516435
vt 0.000921 0.000833
vt 0.257845 0.000921
vt 0.257757 0.257845
vt 0.000833 0.257757
vt 0.516347 0.259511
vt 0.516347 0.516435
vt 0.259422 0.516435
vt 0.259422 0.259511
vt 0.259511 0.000833
vt 0.516435 0.000833
vt 0.516435 0.257757
vt 0.259511 0.257757
vt 0.851061 0.516434
vt 0.851061 0.259511
vt 0.873671 0.259511
vt 0.873671 0.323742
vt 0.873671 0.387971
vt 0.873671 0.452202
vt 0.873671 0.516434
vt 0.065064 0.956161
vt 0.000833 0.956161
vt 0.000833 0.908786
vt 0.065064 0.908786
vt 0.726991 0.593375
vt 0.748319 0.585867
vt 0.748319 0.653961
vt 0.576608 0.898811
vt 0.833532 0.898811
vt 0.833532 0.921422
vt 0.769301 0.921422
vt 0.705070 0.921422
vt 0.640839 0.921422
vt 0.576608 0.921422
vt 0.833531 0.897146
vt 0.576608 0.897146
vt 0.576608 0.874535
vt 0.640839 0.874535
vt 0.705068 0.874535
vt 0.769300 0.874535
vt 0.833531 0.874535
vt 0.130961 0.956161
vt 0.066729 0.956161
vt 0.066729 0.908786
vt 0.130961 0.908786
vt 0.826879 0.180603
vt 0.891110 0.180603
vt 0.891110 0.244834
vt 0.826879 0.244834
vt 0.576608 0.923087
vt 0.640839 0.923087
vt 0.640839 0.970462
vt 0.576608 0.970462
vt 0.840958 0.065064
vt 0.776727 0.065064
vt 0.776727 0.000833
vt 0.840958 0.000833
vt 0.821212 0.673608
vt 0.868587 0.673608
vt 0.868587 0.802070
vt 0.821212 0.802070
vt 0.642504 0.923087
vt 0.706735 0.923087
vt 0.706735 0.970462
vt 0.642504 0.970462
vt 0.833005 0.871204
vt 0.768774 0.871204
vt 0.768774 0.806973
vt 0.833005 0.806973
vt 0.387143 0.936568
vt 0.451374 0.936568
vt 0.451374 0.983942
vt 0.387143 0.983942
vt 0.527100 0.972544
vt 0.527100 0.908313
vt 0.574475 0.908313
vt 0.574475 0.972544
vt 0.967743 0.739521
vt 0.967743 0.803752
vt 0.920369 0.803752
vt 0.920369 0.739521
vt 0.891110 0.114706
vt 0.891110 0.178937
vt 0.826879 0.178937
vt 0.826879 0.114706
vt 0.834670 0.806973
vt 0.898901 0.806973
vt 0.898901 0.871204
vt 0.834670 0.871204
vt 0.900567 0.871204
vt 0.900567 0.806973
vt 0.947941 0.806973
vt 0.947941 0.871204
vt 0.734708 0.803757
vt 0.670477 0.803735
vt 0.670499 0.739504
vt 0.734730 0.739527
vt 0.851527 0.938766
vt 0.915758 0.938766
vt 0.915758 0.986140
vt 0.851527 0.986140
vt 0.957006 0.229054
vt 0.892776 0.229054
vt 0.892776 0.180603
vt 0.957006 0.180603
vt 0.906855 0.049284
vt 0.842623 0.049284
vt 0.842623 0.000833
vt 0.906855 0.000833
vt 0.145586 0.944763
vt 0.145586 0.880532
vt 0.168196 0.944763
vt 0.941227 0.114706
vt 0.941227 0.178937
vt 0.892776 0.178937
vt 0.892776 0.114706
vt 0.875337 0.425640
vt 0.939568 0.425640
vt 0.939568 0.474091
vt 0.875337 0.474091
vt 0.887109 0.618333
vt 0.951340 0.618333
vt 0.951340 0.666784
vt 0.887109 0.666784
vt 0.825214 0.114706
vt 0.825214 0.243168
vt 0.776763 0.243168
vt 0.776763 0.211053
vt 0.776763 0.178937
vt 0.776763 0.146822
vt 0.776763 0.114706
vt 0.772632 0.970462
vt 0.708401 0.970462
vt 0.708401 0.923087
vt 0.772632 0.923087
vt 0.981654 0.986140
vt 0.917423 0.986140
vt 0.917423 0.938766
vt 0.981654 0.938766
vt 0.851527 0.937101
vt 0.851527 0.872869
vt 0.898901 0.872869
vt 0.898901 0.937101
vt 0.517270 0.983942
vt 0.453040 0.983942
vt 0.453040 0.936568
vt 0.517270 0.936568
vt 0.321247 0.936568
vt 0.385478 0.936568
vt 0.385478 0.983942
vt 0.321247 0.983942
vt 0.900567 0.889726
vt 0.964797 0.889726
vt 0.964797 0.937101
vt 0.900567 0.937101
vt 0.920391 0.737839
vt 0.920391 0.673608
vt 0.967765 0.673608
vt 0.967765 0.737839
vt 0.774297 0.923087
vt 0.838529 0.923087
vt 0.838529 0.970462
vt 0.774297 0.970462
vt 0.189454 0.936568
vt 0.253685 0.936568
vt 0.253685 0.983942
vt 0.189454 0.983942
vt 0.955895 0.000833
vt 0.955895 0.065064
vt 0.908520 0.065064
vt 0.908520 0.000833
vt 0.255350 0.936568
vt 0.319581 0.936568
vt 0.319581 0.983942
vt 0.255350 0.983942
vt 0.821213 0.518100
vt 0.885444 0.518100
vt 0.821213 0.582331
vt 0.822020 0.435057
vt 0.776602 0.480475
vt 0.776602 0.389638
vt 0.870252 0.803752
vt 0.870252 0.739521
vt 0.918703 0.739521
vt 0.918703 0.803752
vt 0.825053 0.259511
vt 0.825053 0.291626
vt 0.825053 0.323742
vt 0.825053 0.355857
vt 0.825053 0.387973
vt 0.776602 0.387973
vt 0.776602 0.259511
vt 0.875337 0.259511
vt 0.939568 0.259511
vt 0.939568 0.307962
vt 0.875337 0.307962
vt 0.775097 0.114706
vt 0.775097 0.243168
vt 0.710866 0.243168
vt 0.710866 0.114706
vt 0.887109 0.568217
vt 0.951341 0.568217
vt 0.951341 0.616668
vt 0.887109 0.616668
vt 0.923788 0.359744
vt 0.923788 0.423975
vt 0.875337 0.423975
vt 0.875337 0.359744
vt 0.819547 0.673608
vt 0.819547 0.802070
vt 0.755316 0.802070
vt 0.755316 0.673608
vt 0.849395 0.259511
vt 0.849306 0.516434
vt 0.826718 0.452195
vt 0.826763 0.323734
vt 0.819547 0.518100
vt 0.819547 0.646562
vt 0.755316 0.646562
vt 0.755316 0.518100
vt 0.951341 0.566551
vt 0.887109 0.566551
vt 0.887109 0.518100
vt 0.951341 0.518100
vt 0.939568 0.358078
vt 0.875337 0.358078
vt 0.875337 0.309627
vt 0.939568 0.309627
vt 0.870252 0.737839
vt 0.870274 0.673608
vt 0.918725 0.673624
vt 0.918703 0.737855
vt 0.187788 0.812970
vt 0.187788 0.845085
vt 0.000833 0.845085
vt 0.000833 0.812970
vt 0.187788 0.745407
vt 0.187788 0.777523
vt 0.000833 0.777523
vt 0.000833 0.745407
vt 0.189454 0.839086
vt 0.189854 0.806973
vt 0.380269 0.808901
vt 0.379952 0.839086
vt 0.518776 0.178934
vt 0.518101 0.114706
vt 0.709169 0.126620
vt 0.709201 0.178934
vt 0.190182 0.805308
vt 0.189454 0.773200
vt 0.380653 0.782785
vt 0.380681 0.805306
vt 0.000833 0.878866
vt 0.000833 0.846751
vt 0.187788 0.846751
vt 0.187788 0.878866
vt 0.382347 0.872867
vt 0.382347 0.840752
vt 0.569302 0.840751
vt 0.569302 0.872867
vt 0.189454 0.671942
vt 0.194124 0.607881
vt 0.384180 0.619732
vt 0.380893 0.671942
vt 0.576608 0.872870
vt 0.576608 0.840754
vt 0.763563 0.840754
vt 0.763563 0.872870
vt 0.000833 0.811304
vt 0.000833 0.779189
vt 0.187788 0.779188
vt 0.187788 0.811304
vt 0.569302 0.874532
vt 0.569302 0.906648
vt 0.382347 0.906648
vt 0.382347 0.874532
vt 0.384443 0.805308
vt 0.383714 0.773200
vt 0.574914 0.782786
vt 0.574942 0.805308
vt 0.189454 0.771535
vt 0.191789 0.739504
vt 0.382049 0.749043
vt 0.380894 0.771535
vt 0.376409 0.874533
vt 0.376409 0.906648
vt 0.189454 0.906648
vt 0.189454 0.874532
vt 0.385846 0.671942
vt 0.390516 0.607881
vt 0.580573 0.619732
vt 0.577286 0.671942
vt 0.189529 0.872867
vt 0.189454 0.840752
vt 0.379943 0.842681
vt 0.379954 0.872867
vt 0.678372 0.253901
vt 0.626059 0.253901
vt 0.630181 0.246492
vt 0.676261 0.246492
vt 0.172085 0.727848
vt 0.172085 0.697662
vt 0.179675 0.699940
vt 0.179675 0.726529
vt 0.744395 0.739504
vt 0.744395 0.769690
vt 0.736805 0.767412
vt 0.736805 0.740823
vt 0.145586 0.743229
vt 0.145586 0.720707
vt 0.153503 0.720356
vt 0.153503 0.740194
vt 0.772815 0.649070
vt 0.772815 0.671591
vt 0.764898 0.671942
vt 0.764898 0.652104
vt 0.153646 0.718691
vt 0.145586 0.697662
vt 0.154064 0.697662
vt 0.161164 0.716185
vt 0.572080 0.246492
vt 0.624393 0.246492
vt 0.620270 0.253901
vt 0.574191 0.253900
vt 0.746060 0.769690
vt 0.746060 0.739504
vt 0.753651 0.740823
vt 0.753651 0.767412
vt 0.518775 0.244827
vt 0.518101 0.180599
vt 0.709169 0.192513
vt 0.709201 0.244827
vt 0.382347 0.839086
vt 0.382747 0.806973
vt 0.573163 0.808902
vt 0.572846 0.839086
vt 0.576683 0.839089
vt 0.576608 0.806973
vt 0.767097 0.808901
vt 0.767108 0.839087
vt 0.383714 0.771535
vt 0.386050 0.739504
vt 0.576310 0.749043
vt 0.575155 0.771535
vt 0.170420 0.697662
vt 0.170420 0.727848
vt 0.162830 0.726529
vt 0.162830 0.699940
vt 0.634552 0.663035
vt 0.582238 0.663035
vt 0.584350 0.655627
vt 0.630429 0.655627
vt 0.763233 0.649421
vt 0.763233 0.671942
vt 0.755316 0.668907
vt 0.755316 0.649070
vt 0.518101 0.246492
vt 0.570414 0.246492
vt 0.568303 0.253900
vt 0.522223 0.253901
vt 0.775061 0.048578
vt 0.775061 0.094657
vt 0.631974 0.094657
vt 0.631974 0.048578
vt 0.143920 0.979329
vt 0.143920 0.999167
vt 0.000833 0.999167
vt 0.000833 0.979329
vt 0.725326 0.607881
vt 0.725326 0.653961
vt 0.582238 0.653961
vt 0.582238 0.607881
vt 0.525435 0.908313
vt 0.525435 0.934902
vt 0.382347 0.934902
vt 0.382347 0.908313
vt 0.719695 0.972127
vt 0.719695 0.991965
vt 0.576608 0.991965
vt 0.576608 0.972127
vt 0.919814 0.066729
vt 0.919814 0.093318
vt 0.776727 0.093318
vt 0.776727 0.066729
vt 0.709783 0.583997
vt 0.709783 0.603834
vt 0.566695 0.603834
vt 0.566695 0.583997
vt 0.143920 0.957826
vt 0.143920 0.977664
vt 0.000833 0.977664
vt 0.000833 0.957826
vt 0.775061 0.000833
vt 0.775061 0.046912
vt 0.631974 0.046912
vt 0.631974 0.000833
vt 0.143920 0.880532
vt 0.143920 0.907121
vt 0.000833 0.907121
vt 0.000833 0.880532
vt 0.332541 0.908313
vt 0.332541 0.934902
vt 0.189454 0.934902
vt 0.189454 0.908313
vt 0.143920 0.697662
vt 0.143920 0.743742
vt 0.000833 0.743742
vt 0.000833 0.697662
vt 0.527071 0.022157
vt 0.538131 0.005688
vt 0.583954 0.000833
vt 0.625453 0.020863
vt 0.630308 0.040097
vt 0.630308 0.066686
vt 0.621338 0.091716
vt 0.610278 0.108185
vt 0.564454 0.113041
vt 0.522956 0.093010
vt 0.518101 0.073776
vt 0.518101 0.047187
vt 0.821213 0.648228
vt 0.821213 0.583997
vt 0.885444 0.648228
vt 0.623393 0.784923
vt 0.577975 0.739504
vt 0.668812 0.739504
vt 0.187788 0.695996
vt 0.000833 0.695996
vt 0.022900 0.607881
vt 0.378074 0.606215
vt 0.400142 0.518100
vt 0.565030 0.606215
vt 0.211521 0.606216
vt 0.189454 0.518100
vt 0.376409 0.518100
vt 0.187788 0.518100
vt 0.022900 0.606216
vt 0.000833 0.518100
vt 0.753651 0.582331
vt 0.566695 0.582331
vt 0.566695 0.518100
vt 0.753651 0.518100
vt 0.189454 0.737839
vt 0.189454 0.673608
vt 0.376409 0.673608
vt 0.376409 0.737839
vt 0.566695 0.737839
vt 0.566695 0.673608
vt 0.753651 0.673608
vt 0.753651 0.737839
vt 0.378074 0.737839
vt 0.378074 0.673608
vt 0.565030 0.673608
vt 0.565030 0.737839
vn -1.0000 0.0000 0.0000
vn 0.0000 0.0000 -1.0000
vn 1.0000 0.0000 0.0000
vn 0.0000 -0.0000 1.0000
vn 0.0000 -1.0000 -0.0000
vn 0.0000 1.0000 0.0000
vn 0.9391 0.3436 0.0000
vn -0.9965 0.0119 -0.0833
vn -0.1241 0.0397 -0.9915
vn 0.9837 0.0556 -0.1712
vn -0.9391 0.3436 0.0000
vn -0.1241 0.0397 0.9915
vn -0.9837 0.0556 0.1712
vn -0.9837 0.0556 -0.1712
vn 0.1241 0.0397 -0.9915
vn -0.9965 0.0119 0.0833
vn 0.1241 0.0397 0.9915
vn 0.9965 0.0119 0.0833
vn 0.9965 0.0119 -0.0833
vn 0.9837 0.0555 0.1712
vn -0.2741 -0.0000 0.9617
vn -0.9134 0.0000 0.4072
vn 0.2741 0.0000 -0.9617
vn -0.9852 0.0000 -0.1712
vn 0.9134 0.0000 0.4072
vn 0.9852 0.0000 0.1712
vn -0.9134 0.0000 -0.4072
vn 0.9134 0.0000 -0.4072
vn -0.2741 0.0000 -0.9617
vn -0.9852 0.0000 0.1712
vn 0.9852 0.0000 -0.1712
vn 0.2741 -0.0000 0.9617
vn -0.6846 0.2504 -0.6846
vn 0.6846 0.2504 -0.6846
vn -0.6846 0.2504 0.6846
vn 0.6846 0.2504 0.6846
vn 0.0000 0.3436 0.9391
vn 0.0000 0.3436 -0.9391
usemtl None.002
s 1
f 1/1/1 2/2/1 3/3/1 4/4/1
f 4/5/2 3/6/2 5/7/2 6/8/2
f 6/9/3 5/10/3 7/11/3 8/12/3
f 8/13/4 7/14/4 2/15/4 1/16/4
f 4/17/5 6/18/5 8/19/5 1/20/5
f 7/21/3 5/22/3 9/23/3 10/24/3 11/25/3 12/26/3 13/27/3
f 9/28/2 14/29/2 15/30/2 16/31/2
f 17/32/1 3/33/1 18/34/1
f 2/35/4 7/36/4 13/37/4 19/38/4 20/39/4 21/40/4 22/41/4
f 5/42/2 3/43/2 17/44/2 23/45/2 24/46/2 14/47/2 9/48/2
f 12/49/2 25/50/2 26/51/2 27/52/2
f 28/53/6 29/54/6 30/55/6 31/56/6
f 19/57/4 13/58/4 32/59/4 33/60/4
f 29/61/6 34/62/6 35/63/6 30/64/6
f 36/65/1 18/66/1 37/67/1 38/68/1
f 34/69/4 29/70/4 39/71/4 40/72/4
f 10/73/6 28/74/6 31/75/6 11/76/6
f 17/77/1 18/78/1 36/79/1 41/80/1
f 10/81/3 9/82/3 16/83/3 42/84/3
f 23/85/2 17/86/2 41/87/2 43/88/2
f 11/89/6 31/90/6 25/91/6 12/92/6
f 31/93/6 30/94/6 44/95/6 25/96/6
f 35/97/3 34/98/3 40/99/3 45/100/3
f 30/101/6 35/102/6 46/103/6 44/104/6
f 29/105/4 28/106/4 47/107/4 39/108/4
f 15/109/2 48/110/2 49/111/2 50/112/2
f 16/113/2 15/114/2 50/115/2 51/116/2
f 22/117/1 37/118/1 2/119/1
f 41/120/1 36/121/1 52/122/1 53/123/1
f 33/124/4 32/125/4 54/126/4 55/127/4
f 56/128/4 33/129/4 55/130/4 57/131/4
f 36/132/1 38/133/1 58/134/1 59/135/1 60/136/1 61/137/1 52/138/1
f 24/139/2 23/140/2 43/141/2 48/142/2
f 25/143/2 44/144/2 62/145/2 26/146/2
f 13/147/3 12/148/3 27/149/3 32/150/3
f 14/151/2 24/152/2 48/153/2 15/154/2
f 22/155/4 21/156/4 63/157/4 64/158/4
f 20/159/4 19/160/4 33/161/4 56/162/4
f 46/163/3 35/164/3 45/165/3 65/166/3
f 21/167/4 20/168/4 56/169/4 63/170/4
f 28/171/4 10/172/4 42/173/4 47/174/4
f 44/175/2 46/176/2 65/177/2 62/178/2
f 37/179/1 22/180/1 64/181/1 38/182/1
f 54/183/6 66/184/6 55/185/6
f 67/186/6 68/187/6 58/188/6
f 32/189/3 27/190/3 66/191/3 54/192/3
f 69/193/3 70/194/3 71/195/3 72/196/3 66/197/3 27/198/3 42/199/3
f 63/200/4 56/201/4 57/202/4 68/203/4
f 39/204/5 62/205/5 65/206/5 40/207/5
f 64/208/4 63/209/4 68/210/4 67/211/4
f 38/212/1 64/213/1 67/214/1 58/215/1
f 47/216/5 26/217/5 62/218/5 39/219/5
f 3/220/1 2/221/1 37/222/1 18/223/1
f 42/224/5 27/225/5 26/226/5 47/227/5
f 43/228/2 41/229/2 53/230/2 73/231/2
f 48/232/2 43/233/2 73/234/2 49/235/2
f 42/236/3 16/237/3 51/238/3 69/239/3
f 74/240/7 75/241/7 66/242/7 72/243/7
f 76/244/7 77/245/7 71/246/7 70/247/7
f 78/248/8 79/249/8 80/250/8 81/251/8
f 82/252/9 83/253/9 84/254/9 85/255/9
f 76/256/10 86/257/10 87/258/10 88/259/10
f 60/260/11 59/261/11 89/262/11 79/263/11
f 59/264/11 58/265/11 90/266/11 89/267/11
f 90/268/12 91/269/12 92/270/12 93/271/12
f 52/272/11 61/273/11 78/274/11 83/275/11
f 61/276/11 60/277/11 79/278/11 78/279/11
f 86/280/7 76/281/7 70/282/7 69/283/7
f 89/284/13 90/285/13 93/286/13 94/287/13
f 83/288/14 78/289/14 81/290/14 84/291/14
f 77/292/7 74/293/7 72/294/7 71/295/7
f 86/296/15 82/297/15 85/298/15 87/299/15
f 79/300/16 89/301/16 94/302/16 80/303/16
f 85/304/6 84/305/6 95/306/6 96/307/6
f 97/308/6 88/309/6 98/310/6 99/311/6
f 80/312/6 94/313/6 100/314/6 101/315/6
f 102/316/6 103/317/6 104/318/6 105/319/6
f 84/320/6 81/321/6 106/322/6 95/323/6
f 88/324/6 87/325/6 107/326/6 98/327/6
f 92/328/6 102/329/6 105/330/6 108/331/6
f 103/332/6 97/333/6 99/334/6 104/335/6
f 91/336/17 75/337/17 102/338/17 92/339/17
f 74/340/18 77/341/18 97/342/18 103/343/18
f 77/344/19 76/345/19 88/346/19 97/347/19
f 75/348/20 74/349/20 103/350/20 102/351/20
f 81/352/6 80/353/6 101/354/6 106/355/6
f 87/356/6 85/357/6 96/358/6 107/359/6
f 94/360/6 93/361/6 109/362/6 100/363/6
f 93/364/6 92/365/6 108/366/6 109/367/6
f 107/368/21 96/369/21 110/370/21 111/371/21
f 98/372/22 107/373/22 111/374/22 112/375/22
f 109/376/23 108/377/23 113/378/23 114/379/23
f 104/380/24 99/381/24 115/382/24 116/383/24
f 95/384/25 106/385/25 117/386/25 118/387/25
f 106/388/26 101/389/26 119/390/26 117/391/26
f 105/392/27 104/393/27 116/394/27 120/395/27
f 100/396/28 109/397/28 114/398/28 121/399/28
f 108/400/29 105/401/29 120/402/29 113/403/29
f 99/404/30 98/405/30 112/406/30 115/407/30
f 101/408/31 100/409/31 121/410/31 119/411/31
f 96/412/32 95/413/32 118/414/32 110/415/32
f 112/416/6 111/417/6 110/418/6 118/419/6 117/420/6 119/421/6 121/422/6 114/423/6 113/424/6 120/425/6 116/426/6 115/427/6
f 51/428/6 50/429/6 69/430/6
f 53/431/6 52/432/6 73/433/6
f 83/434/33 73/435/33 52/436/33
f 69/437/34 50/438/34 86/439/34
f 58/440/35 68/441/35 90/442/35
f 75/443/36 55/444/36 66/445/36
f 91/446/37 57/447/37 55/448/37 75/449/37
f 68/450/37 57/451/37 91/452/37 90/453/37
f 50/454/38 49/455/38 82/456/38 86/457/38
f 49/458/38 73/459/38 83/460/38 82/461/38
