# Blender v2.79 (sub 0) OBJ File: ''
# www.blender.org
mtllib RawOre01.mtl
o Cube.005
v 0.609695 -0.626245 -0.558180
v 0.236852 -0.437597 -0.841202
v 0.620932 0.002723 -0.776631
v -0.301789 -0.444236 -0.871479
v -0.618957 -0.621000 -0.479923
v -0.568927 -0.181407 -0.667208
v -0.848866 -0.290605 0.049932
v -0.703215 -0.488943 0.521024
v -0.844379 0.036764 0.359248
v -0.279234 -0.469201 0.806997
v 0.375378 -0.558388 0.867763
v -0.121268 0.027942 1.133477
v 0.791080 -0.482748 0.792260
v 0.822388 -0.447310 0.015415
v 0.759714 -0.205002 0.242402
v 0.019586 -1.031991 0.007663
v 0.031872 -0.805774 -0.282108
v 0.257041 -0.706822 -0.228199
v -0.517964 -0.833218 0.001671
v -0.272387 -0.876933 0.636584
v 0.424102 -0.846025 0.316167
v 0.459167 0.056504 0.754402
v -0.574838 -0.119048 0.983421
v -0.995358 -0.060999 -0.413917
v -0.004091 -0.005306 -1.003738
v 1.037623 0.036771 -0.411399
v 0.126493 0.608032 0.927962
v 0.795457 0.332632 0.462671
v 0.010954 0.790209 0.526668
v -0.875453 0.341834 0.406858
v -0.109355 0.620283 0.662536
v -0.425723 0.850725 0.308954
v -0.858402 0.423099 -0.702399
v -0.868844 0.448270 0.044211
v -0.258492 0.998489 -0.481674
v 0.417098 0.392716 -0.707988
v -0.229679 0.575980 -0.900453
v 0.164942 0.850654 -0.496325
v 0.951971 0.487590 0.251500
v 0.705064 0.494366 -0.470298
v 0.512113 0.776227 0.105674
v 0.036496 1.025614 -0.025265
vt 0.000799 0.890919
vt 0.049075 0.812565
vt 0.122235 0.890919
vt 0.985714 0.391799
vt 0.902467 0.341275
vt 0.985714 0.313966
vt 0.590464 0.345761
vt 0.525904 0.273472
vt 0.629458 0.273472
vt 0.000799 0.444870
vt 0.121784 0.444870
vt 0.022487 0.554974
vt 0.129061 0.910297
vt 0.129061 0.768370
vt 0.176128 0.808135
vt 0.902467 0.429397
vt 0.959062 0.393396
vt 0.987562 0.429397
vt 0.774380 0.310160
vt 0.671768 0.290280
vt 0.774380 0.243085
vt 0.670171 0.138638
vt 0.670171 0.268206
vt 0.576929 0.185863
vt 0.391779 0.259567
vt 0.349580 0.138638
vt 0.466069 0.138638
vt 0.095885 0.556572
vt 0.140719 0.644586
vt 0.000799 0.644586
vt 0.642765 0.100523
vt 0.694799 0.000799
vt 0.758443 0.100523
vt 0.636372 0.853203
vt 0.725108 0.921900
vt 0.636372 0.942747
vt 0.339043 0.742187
vt 0.285689 0.804634
vt 0.285689 0.659876
vt 0.047241 0.954975
vt 0.000799 0.892517
vt 0.124924 0.892517
vt 0.521019 0.018435
vt 0.641167 0.000799
vt 0.641167 0.102034
vt 0.367451 0.263633
vt 0.524306 0.263634
vt 0.380013 0.345761
vt 0.547215 0.553660
vt 0.643367 0.676234
vt 0.547215 0.678787
vt 0.277574 0.000799
vt 0.277574 0.137040
vt 0.126529 0.043029
vt 0.780449 0.241487
vt 0.671768 0.174792
vt 0.780449 0.138638
vt 0.636916 0.453086
vt 0.636916 0.313966
vt 0.722064 0.401498
vt 0.782047 0.266089
vt 0.782047 0.138638
vt 0.856004 0.197596
vt 0.450800 0.582135
vt 0.349049 0.514616
vt 0.450800 0.454683
vt 0.621948 0.928632
vt 0.621948 0.999201
vt 0.519735 0.987775
vt 0.901967 0.437095
vt 0.977844 0.467738
vt 0.901967 0.531677
vt 0.905903 0.705069
vt 0.856907 0.808596
vt 0.824072 0.705069
vt 0.519421 0.108963
vt 0.396024 0.108963
vt 0.509595 0.000799
vt 0.800365 0.553660
vt 0.800365 0.703471
vt 0.728352 0.621921
vt 0.226034 0.138638
vt 0.226034 0.316549
vt 0.126529 0.250629
vt 0.177726 0.933892
vt 0.177726 0.864960
vt 0.294598 0.909653
vt 0.900869 0.413490
vt 0.811207 0.413490
vt 0.856921 0.313966
vt 0.850927 0.094033
vt 0.947114 0.094033
vt 0.930126 0.136067
vt 0.161666 0.487514
vt 0.126529 0.541947
vt 0.126529 0.458864
vt 0.822475 0.814590
vt 0.728352 0.741149
vt 0.822475 0.705069
vt 0.349049 0.369689
vt 0.515077 0.369689
vt 0.434475 0.453086
vt 0.349049 0.994679
vt 0.377658 0.946954
vt 0.465031 0.994679
vt 0.126529 0.348678
vt 0.225647 0.318147
vt 0.225647 0.457266
vt 0.779344 0.903642
vt 0.728352 0.816187
vt 0.835095 0.816188
vt 0.907501 0.706359
vt 0.988708 0.705069
vt 0.988708 0.775638
vt 0.516675 0.453086
vt 0.563454 0.347751
vt 0.635318 0.453086
vt 0.279172 0.123718
vt 0.296430 0.000799
vt 0.394426 0.123718
vt 0.227632 0.160901
vt 0.347982 0.138638
vt 0.347982 0.262035
vt 0.545617 0.504630
vt 0.452398 0.590924
vt 0.452398 0.454683
vt 0.726754 0.553660
vt 0.726754 0.698418
vt 0.644965 0.650856
vt 0.630495 0.985235
vt 0.669614 0.944344
vt 0.725108 0.985235
vt 0.124932 0.000799
vt 0.124932 0.170525
vt 0.000799 0.076394
vt 0.177726 0.561518
vt 0.230951 0.487520
vt 0.347452 0.561518
vt 0.349049 0.945357
vt 0.455874 0.888570
vt 0.487064 0.945357
vt 0.097304 0.646184
vt 0.157654 0.720240
vt 0.000799 0.720240
vt 0.644965 0.818318
vt 0.644965 0.700016
vt 0.726307 0.768219
vt 0.782047 0.267687
vt 0.913133 0.267687
vt 0.878761 0.311443
vt 0.519735 0.771009
vt 0.640064 0.839024
vt 0.519735 0.851605
vt 0.227632 0.368091
vt 0.320724 0.263633
vt 0.365854 0.368091
vt 0.822982 0.437095
vt 0.900370 0.539153
vt 0.822982 0.550885
vt 0.812142 0.110923
vt 0.760040 0.000799
vt 0.849330 0.000799
vt 0.284092 0.719274
vt 0.177726 0.766773
vt 0.177726 0.659876
vt 0.931789 0.245535
vt 0.857601 0.180321
vt 0.931789 0.138638
vt 0.000799 0.810967
vt 0.078955 0.721838
vt 0.117031 0.810967
vt 0.443248 0.583732
vt 0.443248 0.708129
vt 0.349049 0.655697
vt 0.818995 0.905240
vt 0.818995 0.985836
vt 0.728352 0.963604
vt 0.671476 0.519175
vt 0.547215 0.552063
vt 0.547215 0.454683
vt 0.458048 0.777856
vt 0.349049 0.807449
vt 0.349049 0.709726
vt 0.723662 0.550885
vt 0.766311 0.442761
vt 0.821384 0.550885
vt 0.850927 0.092436
vt 0.931691 0.000799
vt 0.940217 0.092436
vt 0.517663 0.823737
vt 0.473826 0.837398
vt 0.473826 0.709726
vt 0.177726 0.658278
vt 0.280411 0.563115
vt 0.305397 0.658278
vt 0.000799 0.250883
vt 0.112709 0.172122
vt 0.112709 0.319145
vt 0.836692 0.974393
vt 0.836692 0.912777
vt 0.960697 0.916515
vt 0.227632 0.485922
vt 0.227632 0.369689
vt 0.347452 0.453759
vt 0.467667 0.205104
vt 0.575331 0.138638
vt 0.575331 0.260283
vt 0.084281 0.443272
vt 0.000799 0.320743
vt 0.115838 0.320743
vt 0.519735 0.927034
vt 0.545723 0.853203
vt 0.634775 0.927034
vt 0.205753 0.935489
vt 0.323065 0.984652
vt 0.177726 0.984652
vt 0.723662 0.313966
vt 0.809610 0.371728
vt 0.723662 0.441163
vt 0.444846 0.597638
vt 0.517663 0.656016
vt 0.444846 0.708129
vt 0.349049 0.886973
vt 0.399943 0.809046
vt 0.471442 0.886973
vt 0.859788 0.702294
vt 0.801963 0.636475
vt 0.925595 0.636475
vt 0.519735 0.769412
vt 0.602186 0.680385
vt 0.643367 0.769412
vt 0.914782 0.634877
vt 0.801963 0.590378
vt 0.914782 0.553660
vt 0.280475 0.832797
vt 0.177726 0.863363
vt 0.177726 0.768370
vt 0.923584 0.911180
vt 0.836692 0.865028
vt 0.923584 0.816187
vn 0.4781 -0.2958 -0.8270
vn -0.7135 -0.2043 -0.6702
vn -0.9578 -0.1902 0.2154
vn -0.9576 -0.1907 0.2158
vn -0.9594 -0.1864 0.2115
vn -0.1481 -0.5096 0.8476
vn 0.9771 0.2070 0.0488
vn 0.4436 -0.7155 -0.5397
vn -0.2717 -0.7530 -0.5993
vn -0.3467 -0.9354 0.0697
vn 0.7060 -0.7082 -0.0039
vn 0.1867 -0.9302 0.3160
vn 0.8244 0.5227 0.2170
vn -0.1114 -0.5205 0.8465
vn -0.9596 -0.1861 0.2109
vn -0.5337 0.1093 -0.8386
vn 0.6484 -0.2601 -0.7155
vn 0.5041 0.8318 0.2325
vn -0.4350 0.5251 0.7315
vn -0.6852 0.7275 -0.0341
vn 0.3776 0.5517 -0.7437
vn 0.5821 0.7902 -0.1917
vn 0.4953 0.8498 -0.1806
vn 0.5450 0.8106 -0.2141
vn 0.4026 0.5573 -0.7261
vn 0.3108 0.9155 -0.2553
vn 0.2187 0.6944 -0.6855
vn -0.3680 0.6418 -0.6728
vn -0.2740 0.9542 0.1204
vn -0.6712 0.7413 -0.0034
vn -0.7188 0.6705 0.1837
vn -0.0665 0.9189 0.3888
vn -0.2367 0.7034 0.6702
vn -0.4948 0.7288 0.4733
vn 0.3446 0.8576 0.3817
vn 0.4605 0.7162 0.5244
vn 0.2304 0.6952 0.6809
vn 0.7956 0.5438 -0.2670
vn 0.6025 0.3453 -0.7196
vn 0.4974 0.3959 -0.7719
vn 0.3481 0.2933 -0.8904
vn -0.5019 -0.0413 -0.8640
vn -0.2560 -0.1779 -0.9502
vn -0.9654 0.2599 -0.0223
vn -0.9801 0.0805 0.1812
vn -0.9945 -0.0942 -0.0458
vn -0.4394 0.5759 0.6894
vn -0.4186 0.5703 0.7067
vn -0.6426 0.4847 0.5934
vn 0.5978 0.1107 0.7939
vn 0.7522 -0.2920 0.5907
vn 0.8561 -0.2436 0.4557
vn -0.1371 -0.3839 0.9131
vn 0.2515 -0.8489 0.4649
vn 0.2410 -0.8516 0.4655
vn 0.2509 -0.8489 0.4652
vn 0.2396 -0.8520 0.4655
vn 0.3560 -0.9215 0.1554
vn 0.5124 -0.7811 -0.3570
vn 0.6046 -0.7073 -0.3664
vn -0.8513 -0.5230 0.0430
vn -0.6848 -0.6957 0.2170
vn -0.5155 -0.3378 0.7875
vn -0.1027 -0.8728 -0.4772
vn -0.1468 -0.9162 -0.3729
vn -0.8547 -0.5169 -0.0485
vn -0.1603 -0.9057 -0.3925
vn 0.4467 -0.8137 -0.3721
vn 0.0407 -0.8413 -0.5391
vn 0.9197 -0.2592 0.2951
vn 0.9284 -0.0962 0.3590
vn 0.8454 -0.5116 -0.1539
vn 0.5434 0.0644 0.8370
vn 0.5423 0.0803 0.8364
vn 0.1482 0.1597 0.9760
vn -0.9207 -0.1500 0.3602
vn -0.9215 -0.1354 0.3641
vn -0.3995 -0.6586 0.6377
vn -0.5486 -0.3080 -0.7773
vn -0.5472 -0.2746 -0.7907
vn -0.8306 -0.5567 -0.0133
vn 0.3194 0.3237 -0.8906
vn 0.3389 -0.1597 -0.9272
vn 0.0571 -0.3233 -0.9446
usemtl Material.001
s 1
f 1/1/1 2/2/1 3/3/1
f 4/4/2 5/5/2 6/6/2
f 7/7/3 8/8/4 9/9/5
f 10/10/6 11/11/6 12/12/6
f 13/13/7 14/14/7 15/15/7
f 16/16/8 17/17/8 18/18/8
f 16/19/9 19/20/9 17/21/9
f 16/22/10 20/23/10 19/24/10
f 13/25/11 21/26/11 14/27/11
f 16/28/12 21/29/12 20/30/12
f 13/31/13 15/32/13 22/33/13
f 10/34/14 12/35/14 23/36/14
f 7/37/3 9/38/5 24/39/15
f 4/40/16 6/41/16 25/42/16
f 1/43/17 3/44/17 26/45/17
f 27/46/18 28/47/18 29/48/18
f 30/49/19 31/50/19 32/51/19
f 33/52/20 34/53/20 35/54/20
f 36/55/21 37/56/21 38/57/21
f 39/58/22 40/59/22 41/60/22
f 41/61/23 38/62/23 42/63/23
f 41/64/24 40/65/24 38/66/24
f 40/67/25 36/68/25 38/69/25
f 38/70/26 35/71/26 42/72/26
f 38/73/27 37/74/27 35/75/27
f 37/76/28 33/77/28 35/78/28
f 35/79/29 32/80/29 42/81/29
f 35/82/30 34/83/30 32/84/30
f 34/85/31 30/86/31 32/87/31
f 32/88/32 29/89/32 42/90/32
f 32/91/33 31/92/33 29/93/33
f 31/94/34 27/95/34 29/96/34
f 29/97/35 41/98/35 42/99/35
f 29/100/36 28/101/36 41/102/36
f 28/103/37 39/104/37 41/105/37
f 26/106/38 40/107/38 39/108/38
f 26/109/39 3/110/39 40/111/39
f 3/112/40 36/113/40 40/114/40
f 25/115/41 37/116/41 36/117/41
f 25/118/42 6/119/42 37/120/42
f 6/121/43 33/122/43 37/123/43
f 24/124/44 34/125/44 33/126/44
f 24/127/45 9/128/45 34/129/45
f 9/130/46 30/131/46 34/132/46
f 23/133/47 31/134/47 30/135/47
f 23/136/48 12/137/48 31/138/48
f 12/139/49 27/140/49 31/141/49
f 22/142/50 28/143/50 27/144/50
f 22/145/51 15/146/51 28/147/51
f 15/148/52 39/149/52 28/150/52
f 20/151/53 11/152/53 10/153/53
f 20/154/54 21/155/55 11/156/56
f 21/157/55 13/158/57 11/159/56
f 14/160/58 18/161/58 1/162/58
f 14/163/59 21/164/59 18/165/59
f 21/166/60 16/167/60 18/168/60
f 19/169/61 8/170/61 7/171/61
f 19/172/62 20/173/62 8/174/62
f 20/175/63 10/176/63 8/177/63
f 17/178/64 5/179/64 4/180/64
f 17/181/65 19/182/65 5/183/65
f 19/184/66 7/185/66 5/186/66
f 18/187/67 2/188/67 1/189/67
f 18/190/68 17/191/68 2/192/68
f 17/193/69 4/194/69 2/195/69
f 15/196/70 26/197/70 39/198/70
f 15/199/71 14/200/71 26/201/71
f 14/202/72 1/203/72 26/204/72
f 12/205/73 22/206/73 27/207/73
f 12/208/74 11/209/74 22/210/74
f 11/211/75 13/212/75 22/213/75
f 9/214/76 23/215/76 30/216/76
f 9/217/77 8/218/77 23/219/77
f 8/220/78 10/221/78 23/222/78
f 6/223/79 24/224/79 33/225/79
f 6/226/80 5/227/80 24/228/80
f 5/229/81 7/230/81 24/231/81
f 3/232/82 25/233/82 36/234/82
f 3/235/83 2/236/83 25/237/83
f 2/238/84 4/239/84 25/240/84
