# Blender v2.79 (sub 0) OBJ File: ''
# www.blender.org
mtllib RawOre02.mtl
o Cube.006
v 0.481563 -0.624046 -0.536144
v 0.188869 -0.345568 -0.747593
v 0.599362 -0.016095 -0.688576
v -0.251799 -0.434173 -0.761064
v -0.496064 -0.624922 -0.385949
v -0.522192 -0.290508 -0.577095
v -0.738569 -0.189782 0.072915
v -0.641429 -0.417948 0.538537
v -0.730550 0.031606 0.366142
v -0.280147 -0.465668 0.809023
v 0.367186 -0.527422 0.887373
v -0.182234 0.061106 1.120790
v 0.731292 -0.483464 0.879619
v 0.688388 -0.394086 0.044380
v 0.602318 -0.309804 0.228834
v 0.016490 -0.942563 0.085514
v 0.126322 -0.690626 -0.120945
v 0.141419 -0.558876 -0.134948
v -0.439228 -0.737404 0.065447
v -0.296195 -0.818601 0.667911
v 0.370982 -0.755076 0.370961
v 0.318466 0.046210 0.715472
v -0.520590 -0.169034 0.984501
v -0.921158 -0.117176 -0.421009
v 0.018097 -0.020712 -0.893110
v 0.965305 0.014340 -0.403295
v 0.007473 0.642614 0.890051
v 0.707951 0.178109 0.446946
v -0.060658 0.686536 0.492100
v -0.854917 0.244889 0.328554
v -0.087369 0.607658 0.558345
v -0.383359 0.778864 0.227065
v -0.845700 0.357343 -0.781976
v -0.810648 0.362171 -0.006313
v -0.148696 0.993516 -0.574748
v 0.480416 0.334782 -0.578040
v -0.163417 0.538225 -0.883553
v 0.204646 0.784132 -0.451789
v 0.914910 0.396526 0.365426
v 0.695176 0.425310 -0.350964
v 0.468356 0.633281 0.193087
v 0.055377 0.965921 -0.044015
vt 0.282965 0.882245
vt 0.333423 0.810346
vt 0.405813 0.882245
vt 0.069596 0.892847
vt 0.011543 0.966434
vt 0.000788 0.892847
vt 0.966501 0.573755
vt 0.921006 0.664622
vt 0.895709 0.573756
vt 0.000788 0.316208
vt 0.125781 0.333385
vt 0.000788 0.435619
vt 0.946019 0.468983
vt 0.946019 0.306962
vt 0.973052 0.339675
vt 0.408874 0.428151
vt 0.474187 0.417254
vt 0.497447 0.428151
vt 0.528672 0.969828
vt 0.449856 0.914412
vt 0.564915 0.914412
vt 0.832222 0.695171
vt 0.740334 0.786497
vt 0.740334 0.666198
vt 0.184792 0.507128
vt 0.169446 0.377052
vt 0.281389 0.377052
vt 0.695752 0.666198
vt 0.738758 0.750703
vt 0.597554 0.750703
vt 0.311990 0.112676
vt 0.382222 0.000788
vt 0.445159 0.112676
vt 0.543148 0.375316
vt 0.662559 0.375316
vt 0.601389 0.431537
vt 0.161422 0.412772
vt 0.127356 0.474829
vt 0.127356 0.316208
vt 0.358754 0.164727
vt 0.311990 0.114252
vt 0.443285 0.114252
vt 0.074731 0.800553
vt 0.175527 0.730326
vt 0.231128 0.800553
vt 0.468240 0.586391
vt 0.643923 0.637715
vt 0.468240 0.664622
vt 0.095278 0.587574
vt 0.264697 0.587574
vt 0.211869 0.662540
vt 0.180945 0.000788
vt 0.180945 0.150359
vt 0.000788 0.047487
vt 0.699125 0.105218
vt 0.582169 0.023354
vt 0.699125 0.000788
vt 0.563331 0.579694
vt 0.563331 0.435245
vt 0.647824 0.521023
vt 0.788900 0.138105
vt 0.788900 0.000788
vt 0.862472 0.053799
vt 0.650758 0.305335
vt 0.552912 0.235170
vt 0.650758 0.168018
vt 0.964880 0.000788
vt 0.968477 0.063365
vt 0.864047 0.063365
vt 0.202474 0.850564
vt 0.269365 0.802128
vt 0.269365 0.911789
vt 0.000788 0.891271
vt 0.000788 0.772158
vt 0.072471 0.850259
vt 0.208837 0.585998
vt 0.095278 0.508704
vt 0.281389 0.508704
vt 0.069255 0.604424
vt 0.069255 0.770583
vt 0.000788 0.690085
vt 0.281389 0.168018
vt 0.281389 0.375477
vt 0.182521 0.301561
vt 0.481306 0.912836
vt 0.449856 0.851559
vt 0.588468 0.851559
vt 0.910120 0.409963
vt 0.827737 0.409963
vt 0.886489 0.306962
vt 0.178509 0.151934
vt 0.178509 0.243645
vt 0.161305 0.232500
vt 0.180945 0.310529
vt 0.165334 0.375477
vt 0.165334 0.297245
vt 0.337779 0.808770
vt 0.282965 0.704834
vt 0.394859 0.704834
vt 0.282965 0.631908
vt 0.460696 0.631908
vt 0.376326 0.703258
vt 0.897674 0.206765
vt 0.897674 0.146714
vt 0.999212 0.163186
vt 0.000788 0.437194
vt 0.083519 0.484437
vt 0.000788 0.602848
vt 0.854536 0.873218
vt 0.882351 0.788073
vt 0.949806 0.873218
vt 0.740334 0.981761
vt 0.802094 0.940139
vt 0.848961 0.981761
vt 0.282965 0.630332
vt 0.282965 0.517114
vt 0.404675 0.591727
vt 0.386845 0.515539
vt 0.282965 0.435245
vt 0.466665 0.435245
vt 0.282965 0.190364
vt 0.426197 0.168018
vt 0.426197 0.305386
vt 0.561755 0.503481
vt 0.468240 0.584815
vt 0.468241 0.435245
vt 0.728241 0.146714
vt 0.728241 0.305335
vt 0.652334 0.244686
vt 0.438075 0.614275
vt 0.406251 0.578198
vt 0.438075 0.517114
vt 0.000788 0.151934
vt 0.159729 0.255976
vt 0.000788 0.314632
vt 0.074731 0.728750
vt 0.126933 0.664116
vt 0.264697 0.728750
vt 0.446734 0.162444
vt 0.560267 0.107958
vt 0.598907 0.162444
vt 0.659160 0.306962
vt 0.726174 0.373740
vt 0.543148 0.373740
vt 0.820818 0.563619
vt 0.820818 0.435245
vt 0.896955 0.507466
vt 0.074731 0.949226
vt 0.225828 0.949226
vt 0.174789 0.980866
vt 0.074731 0.802128
vt 0.200898 0.875234
vt 0.074731 0.875412
vt 0.408874 0.355230
vt 0.541572 0.306962
vt 0.541572 0.415678
vt 0.740334 0.879926
vt 0.871312 0.879926
vt 0.831880 0.938564
vt 0.819242 0.561951
vt 0.731379 0.487237
vt 0.819242 0.435245
vt 0.826162 0.367105
vt 0.727749 0.420456
vt 0.727749 0.306962
vt 0.905716 0.779692
vt 0.833798 0.717899
vt 0.905716 0.666198
vt 0.597554 0.842654
vt 0.671318 0.752279
vt 0.717782 0.842654
vt 0.822384 0.146714
vt 0.822384 0.267013
vt 0.729817 0.217706
vt 0.872887 0.953209
vt 0.872888 0.879926
vt 0.959224 0.893660
vt 0.729803 0.586737
vt 0.649400 0.483417
vt 0.729803 0.435245
vt 0.852961 0.854817
vt 0.740334 0.878350
vt 0.740334 0.788073
vt 0.468240 0.762744
vt 0.588468 0.762744
vt 0.491462 0.849983
vt 0.792039 0.664622
vt 0.882185 0.577601
vt 0.894133 0.664622
vt 0.989070 0.697280
vt 0.968077 0.712082
vt 0.968077 0.573755
vt 0.766037 0.137467
vt 0.700701 0.000788
vt 0.787324 0.000788
vt 0.182521 0.085983
vt 0.310414 0.000788
vt 0.310414 0.166442
vt 0.438276 0.964017
vt 0.407389 0.934916
vt 0.438276 0.810346
vt 0.282967 0.433669
vt 0.282965 0.306962
vt 0.407298 0.401837
vt 0.511976 0.106382
vt 0.446734 0.000788
vt 0.580593 0.000788
vt 0.551336 0.179796
vt 0.427773 0.283752
vt 0.427773 0.168018
vt 0.074731 0.947650
vt 0.074731 0.876987
vt 0.190373 0.943024
vt 0.944443 0.342203
vt 0.911695 0.469660
vt 0.911695 0.306962
vt 0.823960 0.146714
vt 0.896098 0.207481
vt 0.823960 0.278310
vt 0.396435 0.704834
vt 0.463617 0.760772
vt 0.396435 0.805931
vt 0.645498 0.664622
vt 0.699093 0.593540
vt 0.790463 0.664622
vt 0.652051 0.964405
vt 0.597554 0.913800
vt 0.725292 0.913800
vt 0.468240 0.761168
vt 0.557693 0.666198
vt 0.595978 0.761168
vt 0.694852 0.912224
vt 0.597554 0.844230
vt 0.725241 0.844230
vt 0.384052 0.946042
vt 0.282965 0.959871
vt 0.282965 0.883820
vt 0.947386 0.140991
vt 0.864047 0.117362
vt 0.947386 0.064941
vn 0.3617 -0.2921 -0.8854
vn -0.6521 -0.4140 -0.6351
vn -0.9806 -0.1428 0.1346
vn -0.1505 -0.4827 0.8628
vn 0.7360 0.6761 0.0345
vn 0.9100 -0.0607 0.4101
vn -0.2171 -0.5604 -0.7993
vn -0.4094 -0.9120 -0.0257
vn 0.6940 -0.7113 -0.1118
vn 0.2295 -0.9196 0.3190
vn 0.7874 0.6163 0.0084
vn -0.0002 -0.5093 0.8606
vn -0.8971 -0.3405 0.2816
vn -0.5321 0.0781 -0.8431
vn 0.6016 -0.3020 -0.7395
vn 0.5516 0.8341 -0.0024
vn -0.4660 0.5442 0.6976
vn -0.6781 0.7345 0.0261
vn 0.4951 0.5029 -0.7085
vn 0.5006 0.8575 -0.1191
vn 0.6565 0.7485 -0.0934
vn 0.5970 0.8002 -0.0570
vn 0.5145 0.5095 -0.6897
vn 0.5450 0.8217 -0.1668
vn 0.5243 0.4663 -0.7125
vn -0.2634 0.5473 -0.7944
vn -0.2994 0.9399 0.1640
vn -0.6951 0.7189 -0.0110
vn -0.7292 0.6702 0.1383
vn -0.1073 0.8910 0.4411
vn -0.3478 0.6692 0.6566
vn -0.8653 0.4601 0.1989
vn 0.3576 0.7942 0.4913
vn 0.4378 0.6026 0.6672
vn -0.1116 0.4386 0.8917
vn 0.8012 0.5551 -0.2234
vn 0.5290 0.4401 -0.7256
vn 0.5718 0.4165 -0.7068
vn 0.4651 0.1659 -0.8696
vn -0.4508 -0.1313 -0.8829
vn -0.0542 -0.3256 -0.9440
vn -0.9811 0.1888 0.0432
vn -0.9727 0.0245 0.2309
vn -0.8042 -0.5197 -0.2883
vn -0.4779 0.6122 0.6299
vn -0.6163 0.6142 0.4929
vn -0.8993 0.3796 0.2171
vn 0.5561 0.0471 0.8298
vn 0.6066 -0.4302 0.6686
vn 0.6785 -0.4172 0.6047
vn -0.1459 -0.3615 0.9209
vn 0.2583 -0.8833 0.3913
vn 0.1182 -0.9083 0.4013
vn 0.1814 -0.9347 0.3056
vn 0.3939 -0.7825 -0.4822
vn 0.6858 -0.5174 -0.5118
vn -0.8766 -0.4785 -0.0516
vn -0.7693 -0.6314 0.0975
vn -0.5994 -0.2735 0.7523
vn 0.0789 -0.9084 -0.4106
vn 0.0005 -0.9703 -0.2419
vn -0.8775 -0.4795 -0.0090
vn -0.5242 -0.7908 -0.3159
vn 0.9932 -0.1097 0.0387
vn 0.1886 -0.8681 -0.4592
vn 0.8595 -0.4329 0.2716
vn 0.8839 -0.0981 0.4573
vn 0.8009 -0.5967 -0.0490
vn 0.6278 0.1014 0.7718
vn 0.6099 0.2746 0.7434
vn -0.0141 0.2859 0.9581
vn -0.8660 -0.4806 0.1381
vn -0.9514 -0.0739 0.2990
vn -0.4841 -0.7017 0.5228
vn -0.4920 -0.4762 -0.7288
vn -0.4898 -0.4612 -0.7399
vn -0.7593 -0.6226 0.1892
vn 0.3045 0.3786 -0.8740
vn 0.3239 -0.2397 -0.9152
vn 0.1011 -0.3620 -0.9267
usemtl Material.002
s 1
f 1/1/1 2/2/1 3/3/1
f 4/4/2 5/5/2 6/6/2
f 7/7/3 8/8/3 9/9/3
f 10/10/4 11/11/4 12/12/4
f 13/13/5 14/14/5 15/15/5
f 16/16/6 17/17/6 18/18/6
f 16/19/7 19/20/7 17/21/7
f 16/22/8 20/23/8 19/24/8
f 13/25/9 21/26/9 14/27/9
f 16/28/10 21/29/10 20/30/10
f 13/31/11 15/32/11 22/33/11
f 10/34/12 12/35/12 23/36/12
f 7/37/13 9/38/13 24/39/13
f 4/40/14 6/41/14 25/42/14
f 1/43/15 3/44/15 26/45/15
f 27/46/16 28/47/16 29/48/16
f 30/49/17 31/50/17 32/51/17
f 33/52/18 34/53/18 35/54/18
f 36/55/19 37/56/19 38/57/19
f 39/58/20 40/59/20 41/60/20
f 41/61/21 38/62/21 42/63/21
f 41/64/22 40/65/22 38/66/22
f 40/67/23 36/68/23 38/69/23
f 38/70/24 35/71/24 42/72/24
f 38/73/25 37/74/25 35/75/25
f 37/76/26 33/77/26 35/78/26
f 35/79/27 32/80/27 42/81/27
f 35/82/28 34/83/28 32/84/28
f 34/85/29 30/86/29 32/87/29
f 32/88/30 29/89/30 42/90/30
f 32/91/31 31/92/31 29/93/31
f 31/94/32 27/95/32 29/96/32
f 29/97/33 41/98/33 42/99/33
f 29/100/34 28/101/34 41/102/34
f 28/103/35 39/104/35 41/105/35
f 26/106/36 40/107/36 39/108/36
f 26/109/37 3/110/37 40/111/37
f 3/112/38 36/113/38 40/114/38
f 25/115/39 37/116/39 36/117/39
f 25/118/40 6/119/40 37/120/40
f 6/121/41 33/122/41 37/123/41
f 24/124/42 34/125/42 33/126/42
f 24/127/43 9/128/43 34/129/43
f 9/130/44 30/131/44 34/132/44
f 23/133/45 31/134/45 30/135/45
f 23/136/46 12/137/46 31/138/46
f 12/139/47 27/140/47 31/141/47
f 22/142/48 28/143/48 27/144/48
f 22/145/49 15/146/49 28/147/49
f 15/148/50 39/149/50 28/150/50
f 20/151/51 11/152/51 10/153/51
f 20/154/52 21/155/52 11/156/52
f 21/157/53 13/158/53 11/159/53
f 14/160/54 18/161/54 1/162/54
f 14/163/55 21/164/55 18/165/55
f 21/166/56 16/167/56 18/168/56
f 19/169/57 8/170/57 7/171/57
f 19/172/58 20/173/58 8/174/58
f 20/175/59 10/176/59 8/177/59
f 17/178/60 5/179/60 4/180/60
f 17/181/61 19/182/61 5/183/61
f 19/184/62 7/185/62 5/186/62
f 18/187/63 2/188/63 1/189/63
f 18/190/64 17/191/64 2/192/64
f 17/193/65 4/194/65 2/195/65
f 15/196/66 26/197/66 39/198/66
f 15/199/67 14/200/67 26/201/67
f 14/202/68 1/203/68 26/204/68
f 12/205/69 22/206/69 27/207/69
f 12/208/70 11/209/70 22/210/70
f 11/211/71 13/212/71 22/213/71
f 9/214/72 23/215/72 30/216/72
f 9/217/73 8/218/73 23/219/73
f 8/220/74 10/221/74 23/222/74
f 6/223/75 24/224/75 33/225/75
f 6/226/76 5/227/76 24/228/76
f 5/229/77 7/230/77 24/231/77
f 3/232/78 25/233/78 36/234/78
f 3/235/79 2/236/79 25/237/79
f 2/238/80 4/239/80 25/240/80
